# xmcd
# Copyright (C) 1995-1998 Ti Kan
#
# Track frame offsets:
#       150
#       13162
#       26362
#       41805
#       54256
#       70442
#
# Disc length: 1095 seconds
#
# Revision: 0
# Processed by: cddbd v1.5.2PL0 Copyright (c) Steve Scherf et al.
# Submitted via: CD-Import v1.0
#
DISCID=4a044506
DTITLE=Tilia - Carminis
DYEAR=2009
DGENRE=
TTITLE0=Disco Song
TTITLE1=Neighbourhood
TTITLE2=Storytelling
TTITLE3=Amsterdamnit
TTITLE4=Mirror
TTITLE5=Say Good Morning Night
EXTD=
EXTT0=
EXTT1=
EXTT2=
EXTT3=
EXTT4=
EXTT5=
PLAYORDER=
